# xmcd
#
# Track frame offsets:
#	150
#	22434
#	45848
#	77052
#	98013
#	134711
#	161496
#	189948
#	224569
#	248632
#	261112
#
# Disc length: 4031
#
# Revision: 3
# Processed by: cddbd v1.5.1PL0 Copyright (c) Steve Scherf et al.
# Submitted via: ExactAudioCopy v0.90b4
# Normalized: r2:DSETVAR1
#
DISCID=940fbd0b
DTITLE=Various Artist - Blues Way vol. 1
DYEAR=1995
DGENRE=Blues
TTITLE0=B.B. King - The Thrill Is Gone
TTITLE1=Tony Joe White - Good Is Blues
TTITLE2=Junior Wells - I'll Take Care Of You
TTITLE3=Dana Gilespie - Where Blue Begins
TTITLE4=Luther Allison - Lightning Bolt
TTITLE5=Blues Company - Silent Nite
TTITLE6=Johnny Winter - Life Is Hard
TTITLE7=Buddy Guy - Black Night
TTITLE8=Stan Webb's Chicken Shack - Don't You Worry About A Thing
TTITLE9=James Brown - It's A Man's Man's Man's World
TTITLE10=Stivie Ray Vaughan and Double Trouble - Tin Pin Alley
EXTD=
EXTT0=
EXTT1=
EXTT2=
EXTT3=
EXTT4=
EXTT5=
EXTT6=
EXTT7=
EXTT8=
EXTT9=
EXTT10=
PLAYORDER=
